# xmcd
#
# Track frame offsets: 
#        150
#        22140
#        52785
#        65505
#        84802
#        110512
#        136177
#        156667
#        185099
#        213711
#        239916
#        271948
#        295625
#        320315
#
# Disc length: 4753 seconds
#
# Revision: 5
# Processed by: cddbd v1.5.2PL0 Copyright (c) Steve Scherf et al.
# Submitted via: ExactAudioCopy v0.99pb5
#
DISCID=d0128f0e
DTITLE=Yes - Yes (Remastered)
DYEAR=2003
DGENRE=Progressive Rock
TTITLE0=Beyond And Before
TTITLE1=I See You
TTITLE2=Yesterday And Today
TTITLE3=Looking Around
TTITLE4=Harold Land
TTITLE5=Every Little Thing
TTITLE6=Sweetness
TTITLE7=Survival
TTITLE8=Everydays (Single Version) - BONUS
TTITLE9=Dear Father (Early Version #2) - BONUS
TTITLE10=Something's Coming - BONUS
TTITLE11=Everydays (Early Version) - BONUS
TTITLE12=Dear Father (Early Version #1) - BONUS
TTITLE13=Something's Coming (Early Version) - BONUS
EXTD=the \ninexpEXPERT REVIEW: Yes' debut album is surprisingly stron
EXTD=g, givenD) a miniature LP style sleeve for initial pressing. \n\n
EXTD=AMG  edition featuring High Definition Digital Rematersing \n(HDC
EXTD=003\n\nAlbum Details (Mini LP CD Packaging]\nJapanese limited98\n
EXTD=Remastered, Expanded Rhino Edition Released January 14, 2 Septemb
EXTD=er 20, 1994\nJapanese Mini LP Version Released March 31, 19ld CD 
EXTD=Edition Released N/A\nRemastered Edition Released YEAR: 2003 ID3G
EXTD=:  92 Originally Released October 15, 1969\nGo
EXTT0=
EXTT1=
EXTT2=
EXTT3=
EXTT4=
EXTT5=
EXTT6=
EXTT7=
EXTT8=
EXTT9=
EXTT10=
EXTT11=
EXTT12=
EXTT13=
PLAYORDER=
